  <svg width="50" height="50" viewBox="40 90 200 100">
    <g fill="#10b981">
      <path d="M107.892+101.162C109.343+105.727+104.438+107.723+104.075+102.623C103.661+101.397+103.247+100.172+102.833+98.9473C102.416+97.8467+101.972+96.7786+101.455+95.7972C100.232+93.5076+98.3361+92.6806+96.5767+92.2035C82.815+91.9232+67.171+103.677+62.5437+126.071C62.3917+128.717+62.4316+132.721+63.6218+134.577C81.9868+152.795+103.018+126.062+116.88+107.61C117.461+109.198+117.179+111.311+117.589+112.924C127.406+122.687+137.411+101.9+146.399+100.337C146.611+101.068+146.318+102.289+146.3+102.791C152.316+105.185+166.698+101.659+164.923+85.9954C164.861+85.4294+165.179+84.6271+165.583+84.9247C165.934+85.076+166.47+85.4977+166.382+86.2639C160.097+108.279+162.832+134.486+160.852+158.134C160.622+174.539+160.163+190.936+159.986+207.342C159.986+208.569+159.986+209.795+159.986+211.021C159.987+211.941+159.987+212.86+159.987+213.78C161.378+218.101+157.352+222.432+156.138+217.692C156.595+174.813+156.064+130.989+161.14+88.7915C161.933+85.8793+162.812+82.1388+164.908+81.2714C166.092+80.9195+167.566+81.2075+168.294+82.9878C172.799+103.771+152.979+116.744+144.149+106.383C143.413+104.742+142.945+102.284+143.654+100.402C144.703+98.4452+147.186+95.4028+148.612+97.5131C148.559+100.033+147.48+102.115+146.561+103.953C138.393+113.668+126.924+126.936+116.515+119.265C112.372+115.681+114.743+106.318+119.285+107.847C119.843+108.379+119.514+109.197+119.356+109.959C106.614+133.437+86.4052+150.945+66.8716+145.08C60.8857+142.983+55.4966+133.482+57.5016+122.969C64.8292+98.311+85.6231+79.1261+102.071+88.9476C104.942+91.5905+106.321+96.6879+107.892+101.162" />
      <path d="M153.066+80.4597C147.915+82.5348+146.459+73.8093+152.008+73.6208C153.308+73.072+154.609+72.5232+155.909+71.9745C157.978+71.2949+160.099+70.8173+162.237+70.403C165.161+69.904+168.104+69.5447+171.056+69.245C173.81+69.0519+176.565+68.9778+179.324+69.1167C182.568+69.2225+185.691+70.1233+188.793+70.9663C191.949+71.8786+195.116+73.1628+197.5+75.4656C199.463+77.2886+200.928+79.7698+200.994+82.4777C193.773+104.127+179.245+111.36+163.613+127.535C160.02+127.078+160.418+129.242+158.539+128.787C169.572+109.016+198.735+112.9+213.824+100.196C214.412+100.154+214.917+100.575+215.388+100.866C211.523+111.925+213.854+125.702+212.732+137.567C212.627+141.954+212.569+148.008+212.403+152.393C210.833+167.225+208.674+170.545+205.927+153.722C206.028+151.038+205.347+145.139+205.424+142.455C205.582+136.673+205.705+130.889+205.817+125.106C207.379+116.342+202.339+94.7279+216.801+95.3161C219.83+96.4024+221.123+99.9327+220.198+102.827C219.615+105.016+217.945+106.748+216.085+107.985C196.225+116.449+174.92+121.603+155.695+131.83C154.823+131.823+153.321+132.773+153.445+131.253C167.333+115.466+184.613+101.468+194.58+82.8189C185.426+71.1986+165.197+75.4567+153.066+80.4597" />
    </g>
  </svg>